<svg xmlns="http://www.w3.org/2000/svg" viewBox="0 0 24 24" width="24" height="24" aria-labelledby="linkedinIconTitle" role="img">
  <title id="linkedinIconTitle">LinkedIn Icon</title>
  <path d="M19 0h-14C2.69 0 0 2.69 0 6v12c0 3.31 2.69 6 6 6h14c3.31 0 6-2.69 6-6V6c0-3.31-2.69-6-6-6zm-10.5 18h-3v-9h3v9zm-1.5-10.5c-.966 0-1.5-.684-1.5-1.5s.534-1.5 1.5-1.5 1.5.684 1.5 1.5-.534 1.5-1.5 1.5zm13.5 10.5h-3v-4.5c0-1.071-.021-2.448-1.5-2.448-1.5 0-1.732 1.171-1.732 2.448v4.5h-3v-9h3v1.227c1.5-2.25 4.5-2.25 4.5 1.5V18z"/>
</svg>